<?xml version="1.0" encoding="UTF-8"?>
<svg xmlns="http://www.w3.org/2000/svg" version="1.1" width="1024" height="1024" viewBox="0 0 500 500"><rect x="0" y="0" width="500" height="500" fill="#ffffff"/><g transform="scale(18.519)"><g transform="translate(1,1)"><g><g transform="translate(3.5,3.5)"><path fill-rule="evenodd" d="M-3.5 0C-3.5 3.5 -3.5 3.5 0 3.5C3.5 3.5 3.5 3.5 3.5 0C3.5 -3.5 3.5 -3.5 0 -3.5C-3.5 -3.5 -3.5 -3.5 -3.5 0ZM-2.5 0L-2.5 -1.5A1 1 0 0 1 -1.5 -2.5L1.5 -2.5A1 1 0 0 1 2.5 -1.5L2.5 1.5A1 1 0 0 1 1.5 2.5L-1.5 2.5A1 1 0 0 1 -2.5 1.5Z" fill="#000000"/><path fill-rule="evenodd" d="M-1.5 -1.5L1.5 -1.5L1.5 1.5L-1.5 1.5Z" fill="#000000"/></g></g><g><g transform="translate(21.5,3.5)"><g transform="rotate(90)"><path fill-rule="evenodd" d="M-3.5 0C-3.5 3.5 -3.5 3.5 0 3.5C3.5 3.5 3.5 3.5 3.5 0C3.5 -3.5 3.5 -3.5 0 -3.5C-3.5 -3.5 -3.5 -3.5 -3.5 0ZM-2.5 0L-2.5 -1.5A1 1 0 0 1 -1.5 -2.5L1.5 -2.5A1 1 0 0 1 2.5 -1.5L2.5 1.5A1 1 0 0 1 1.5 2.5L-1.5 2.5A1 1 0 0 1 -2.5 1.5Z" fill="#000000"/><path fill-rule="evenodd" d="M-1.5 -1.5L1.5 -1.5L1.5 1.5L-1.5 1.5Z" fill="#000000"/></g></g></g><g><g transform="translate(3.5,21.5)"><g transform="rotate(-90)"><path fill-rule="evenodd" d="M-3.5 0C-3.5 3.5 -3.5 3.5 0 3.5C3.5 3.5 3.5 3.5 3.5 0C3.5 -3.5 3.5 -3.5 0 -3.5C-3.5 -3.5 -3.5 -3.5 -3.5 0ZM-2.5 0L-2.5 -1.5A1 1 0 0 1 -1.5 -2.5L1.5 -2.5A1 1 0 0 1 2.5 -1.5L2.5 1.5A1 1 0 0 1 1.5 2.5L-1.5 2.5A1 1 0 0 1 -2.5 1.5Z" fill="#000000"/><path fill-rule="evenodd" d="M-1.5 -1.5L1.5 -1.5L1.5 1.5L-1.5 1.5Z" fill="#000000"/></g></g></g><path fill-rule="evenodd" d="M10 0.25L10 0.75A0.25 0.25 0 0 1 9.75 1L9.25 1A0.25 0.25 0 0 0 9 1.25L9 1.75A0.25 0.25 0 0 1 8.75 2L8.25 2A0.25 0.25 0 0 0 8 2.25L8 7.75A0.25 0.25 0 0 0 8.25 8L9.75 8A0.25 0.25 0 0 1 10 8.25L10 9.75A0.25 0.25 0 0 1 9.75 10L9.25 10A0.25 0.25 0 0 1 9 9.75L9 9.25A0.25 0.25 0 0 0 8.75 9L7.25 9A0.25 0.25 0 0 1 7 8.75L7 8.25A0.25 0.25 0 0 0 6.75 8L2.25 8A0.25 0.25 0 0 0 2 8.25L2 8.75A0.25 0.25 0 0 0 2.25 9L2.75 9A0.25 0.25 0 0 1 3 9.25L3 10.75A0.25 0.25 0 0 1 2.75 11L2.25 11A0.25 0.25 0 0 1 2 10.75L2 10.25A0.25 0.25 0 0 0 1.75 10L1.25 10A0.25 0.25 0 0 1 1 9.75L1 8.25A0.25 0.25 0 0 0 0.75 8L0.25 8A0.25 0.25 0 0 0 0 8.25L0 9.75A0.25 0.25 0 0 0 0.25 10L0.75 10A0.25 0.25 0 0 1 1 10.25L1 10.75A0.25 0.25 0 0 1 0.75 11L0.25 11A0.25 0.25 0 0 0 0 11.25L0 16.75A0.25 0.25 0 0 0 0.25 17L0.75 17A0.25 0.25 0 0 0 1 16.75L1 14.25A0.25 0.25 0 0 1 1.25 14L1.75 14A0.25 0.25 0 0 1 2 14.25L2 14.75A0.25 0.25 0 0 0 2.25 15L2.75 15A0.25 0.25 0 0 0 3 14.75L3 11.25A0.25 0.25 0 0 1 3.25 11L3.75 11A0.25 0.25 0 0 1 4 11.25L4 11.75A0.25 0.25 0 0 0 4.25 12L4.75 12A0.25 0.25 0 0 0 5 11.75L5 11.25A0.25 0.25 0 0 1 5.25 11L7.75 11A0.25 0.25 0 0 1 8 11.25L8 11.75A0.25 0.25 0 0 1 7.75 12L6.25 12A0.25 0.25 0 0 0 6 12.25L6 12.75A0.25 0.25 0 0 0 6.25 13L7.75 13A0.25 0.25 0 0 1 8 13.25L8 14.75A0.25 0.25 0 0 1 7.75 15L7.25 15A0.25 0.25 0 0 1 7 14.75L7 14.25A0.25 0.25 0 0 0 6.75 14L5.25 14A0.25 0.25 0 0 1 5 13.75L5 13.25A0.25 0.25 0 0 0 4.75 13L4.25 13A0.25 0.25 0 0 0 4 13.25L4 15.75A0.25 0.25 0 0 1 3.75 16L3.25 16A0.25 0.25 0 0 0 3 16.25L3 16.75A0.25 0.25 0 0 0 3.25 17L3.75 17A0.25 0.25 0 0 0 4 16.75L4 16.25A0.25 0.25 0 0 1 4.25 16L4.75 16A0.25 0.25 0 0 1 5 16.25L5 16.75A0.25 0.25 0 0 0 5.25 17L6.75 17A0.25 0.25 0 0 0 7 16.75L7 16.25A0.25 0.25 0 0 1 7.25 16L8.75 16A0.25 0.25 0 0 1 9 16.25L9 16.75A0.25 0.25 0 0 1 8.75 17L8.25 17A0.25 0.25 0 0 0 8 17.25L8 17.75A0.25 0.25 0 0 0 8.25 18L8.75 18A0.25 0.25 0 0 0 9 17.75L9 17.25A0.25 0.25 0 0 1 9.25 17L9.75 17A0.25 0.25 0 0 1 10 17.25L10 17.75A0.25 0.25 0 0 0 10.25 18L11.75 18A0.25 0.25 0 0 1 12 18.25L12 18.75A0.25 0.25 0 0 1 11.75 19L8.25 19A0.25 0.25 0 0 0 8 19.25L8 22.75A0.25 0.25 0 0 0 8.25 23L8.75 23A0.25 0.25 0 0 1 9 23.25L9 23.75A0.25 0.25 0 0 1 8.75 24L8.25 24A0.25 0.25 0 0 0 8 24.25L8 24.75A0.25 0.25 0 0 0 8.25 25L10.75 25A0.25 0.25 0 0 0 11 24.75L11 21.25A0.25 0.25 0 0 0 10.75 21L10.25 21A0.25 0.25 0 0 1 10 20.75L10 20.25A0.25 0.25 0 0 1 10.25 20L11.75 20A0.25 0.25 0 0 0 12 19.75L12 19.25A0.25 0.25 0 0 1 12.25 19L13.75 19A0.25 0.25 0 0 1 14 19.25L14 19.75A0.25 0.25 0 0 1 13.75 20L13.25 20A0.25 0.25 0 0 0 13 20.25L13 20.75A0.25 0.25 0 0 1 12.75 21L12.25 21A0.25 0.25 0 0 0 12 21.25L12 21.75A0.25 0.25 0 0 0 12.25 22L12.75 22A0.25 0.25 0 0 1 13 22.25L13 22.75A0.25 0.25 0 0 0 13.25 23L13.75 23A0.25 0.25 0 0 1 14 23.25L14 23.75A0.25 0.25 0 0 1 13.75 24L12.25 24A0.25 0.25 0 0 0 12 24.25L12 24.75A0.25 0.25 0 0 0 12.25 25L13.75 25A0.25 0.25 0 0 0 14 24.75L14 24.25A0.25 0.25 0 0 1 14.25 24L14.75 24A0.25 0.25 0 0 1 15 24.25L15 24.75A0.25 0.25 0 0 0 15.25 25L15.75 25A0.25 0.25 0 0 0 16 24.75L16 24.25A0.25 0.25 0 0 0 15.75 24L15.25 24A0.25 0.25 0 0 1 15 23.75L15 22.25A0.25 0.25 0 0 1 15.25 22L16.75 22A0.25 0.25 0 0 1 17 22.25L17 23.75A0.25 0.25 0 0 0 17.25 24L21.75 24A0.25 0.25 0 0 1 22 24.25L22 24.75A0.25 0.25 0 0 0 22.25 25L24.75 25A0.25 0.25 0 0 0 25 24.75L25 24.25A0.25 0.25 0 0 0 24.75 24L24.25 24A0.25 0.25 0 0 1 24 23.75L24 23.25A0.25 0.25 0 0 1 24.25 23L24.75 23A0.25 0.25 0 0 0 25 22.75L25 21.25A0.25 0.25 0 0 0 24.75 21L23.25 21A0.25 0.25 0 0 0 23 21.25L23 21.75A0.25 0.25 0 0 1 22.75 22L22.25 22A0.25 0.25 0 0 0 22 22.25L22 22.75A0.25 0.25 0 0 1 21.75 23L21.25 23A0.25 0.25 0 0 1 21 22.75L21 21.25A0.25 0.25 0 0 1 21.25 21L21.75 21A0.25 0.25 0 0 0 22 20.75L22 19.25A0.25 0.25 0 0 1 22.25 19L24.75 19A0.25 0.25 0 0 0 25 18.75L25 15.25A0.25 0.25 0 0 0 24.75 15L23.25 15A0.25 0.25 0 0 1 23 14.75L23 14.25A0.25 0.25 0 0 0 22.75 14L22.25 14A0.25 0.25 0 0 0 22 14.25L22 14.75A0.25 0.25 0 0 0 22.25 15L22.75 15A0.25 0.25 0 0 1 23 15.25L23 15.75A0.25 0.25 0 0 0 23.25 16L23.75 16A0.25 0.25 0 0 1 24 16.25L24 17.75A0.25 0.25 0 0 1 23.75 18L22.25 18A0.25 0.25 0 0 0 22 18.25L22 18.75A0.25 0.25 0 0 1 21.75 19L21.25 19A0.25 0.25 0 0 1 21 18.75L21 17.25A0.25 0.25 0 0 1 21.25 17L21.75 17A0.25 0.25 0 0 0 22 16.75L22 16.25A0.25 0.25 0 0 0 21.75 16L14.25 16A0.25 0.25 0 0 1 14 15.75L14 15.25A0.25 0.25 0 0 1 14.25 15L14.75 15A0.25 0.25 0 0 0 15 14.75L15 14.25A0.25 0.25 0 0 0 14.75 14L13.25 14A0.25 0.25 0 0 1 13 13.75L13 11.25A0.25 0.25 0 0 1 13.25 11L13.75 11A0.25 0.25 0 0 1 14 11.25L14 12.75A0.25 0.25 0 0 0 14.25 13L15.75 13A0.25 0.25 0 0 1 16 13.25L16 13.75A0.25 0.25 0 0 0 16.25 14L16.75 14A0.25 0.25 0 0 1 17 14.25L17 14.75A0.25 0.25 0 0 0 17.25 15L18.75 15A0.25 0.25 0 0 0 19 14.75L19 14.25A0.25 0.25 0 0 1 19.25 14L19.75 14A0.25 0.25 0 0 1 20 14.25L20 14.75A0.25 0.25 0 0 0 20.25 15L20.75 15A0.25 0.25 0 0 0 21 14.75L21 13.25A0.25 0.25 0 0 1 21.25 13L21.75 13A0.25 0.25 0 0 0 22 12.75L22 12.25A0.25 0.25 0 0 0 21.75 12L18.25 12A0.25 0.25 0 0 1 18 11.75L18 11.25A0.25 0.25 0 0 1 18.25 11L18.75 11A0.25 0.25 0 0 0 19 10.75L19 10.25A0.25 0.25 0 0 1 19.25 10L19.75 10A0.25 0.25 0 0 1 20 10.25L20 10.75A0.25 0.25 0 0 0 20.25 11L20.75 11A0.25 0.25 0 0 0 21 10.75L21 9.25A0.25 0.25 0 0 1 21.25 9L22.75 9A0.25 0.25 0 0 0 23 8.75L23 8.25A0.25 0.25 0 0 0 22.75 8L18.25 8A0.25 0.25 0 0 0 18 8.25L18 8.75A0.25 0.25 0 0 1 17.75 9L17.25 9A0.25 0.25 0 0 0 17 9.25L17 9.75A0.25 0.25 0 0 1 16.75 10L16.25 10A0.25 0.25 0 0 1 16 9.75L16 8.25A0.25 0.25 0 0 1 16.25 8L16.75 8A0.25 0.25 0 0 0 17 7.75L17 6.25A0.25 0.25 0 0 0 16.75 6L16.25 6A0.25 0.25 0 0 1 16 5.75L16 4.25A0.25 0.25 0 0 1 16.25 4L16.75 4A0.25 0.25 0 0 0 17 3.75L17 2.25A0.25 0.25 0 0 0 16.75 2L16.25 2A0.25 0.25 0 0 1 16 1.75L16 1.25A0.25 0.25 0 0 1 16.25 1L16.75 1A0.25 0.25 0 0 0 17 0.75L17 0.25A0.25 0.25 0 0 0 16.75 0L16.25 0A0.25 0.25 0 0 0 16 0.25L16 0.75A0.25 0.25 0 0 1 15.75 1L15.25 1A0.25 0.25 0 0 1 15 0.75L15 0.25A0.25 0.25 0 0 0 14.75 0L14.25 0A0.25 0.25 0 0 0 14 0.25L14 0.75A0.25 0.25 0 0 1 13.75 1L13.25 1A0.25 0.25 0 0 1 13 0.75L13 0.25A0.25 0.25 0 0 0 12.75 0L12.25 0A0.25 0.25 0 0 0 12 0.25L12 1.75A0.25 0.25 0 0 0 12.25 2L15.75 2A0.25 0.25 0 0 1 16 2.25L16 2.75A0.25 0.25 0 0 1 15.75 3L14.25 3A0.25 0.25 0 0 0 14 3.25L14 4.75A0.25 0.25 0 0 1 13.75 5L11.25 5A0.25 0.25 0 0 0 11 5.25L11 5.75A0.25 0.25 0 0 1 10.75 6L10.25 6A0.25 0.25 0 0 1 10 5.75L10 4.25A0.25 0.25 0 0 0 9.75 4L9.25 4A0.25 0.25 0 0 1 9 3.75L9 2.25A0.25 0.25 0 0 1 9.25 2L9.75 2A0.25 0.25 0 0 1 10 2.25L10 2.75A0.25 0.25 0 0 0 10.25 3L10.75 3A0.25 0.25 0 0 1 11 3.25L11 3.75A0.25 0.25 0 0 0 11.25 4L12.75 4A0.25 0.25 0 0 0 13 3.75L13 3.25A0.25 0.25 0 0 0 12.75 3L11.25 3A0.25 0.25 0 0 1 11 2.75L11 0.25A0.25 0.25 0 0 0 10.75 0L10.25 0A0.25 0.25 0 0 0 10 0.25ZM14 5.25L14 5.75A0.25 0.25 0 0 1 13.75 6L13.25 6A0.25 0.25 0 0 0 13 6.25L13 6.75A0.25 0.25 0 0 1 12.75 7L12.25 7A0.25 0.25 0 0 1 12 6.75L12 6.25A0.25 0.25 0 0 0 11.75 6L11.25 6A0.25 0.25 0 0 0 11 6.25L11 6.75A0.25 0.25 0 0 1 10.75 7L10.25 7A0.25 0.25 0 0 1 10 6.75L10 6.25A0.25 0.25 0 0 0 9.75 6L9.25 6A0.25 0.25 0 0 0 9 6.25L9 6.75A0.25 0.25 0 0 0 9.25 7L9.75 7A0.25 0.25 0 0 1 10 7.25L10 7.75A0.25 0.25 0 0 0 10.25 8L11.75 8A0.25 0.25 0 0 1 12 8.25L12 8.75A0.25 0.25 0 0 1 11.75 9L11.25 9A0.25 0.25 0 0 0 11 9.25L11 10.75A0.25 0.25 0 0 1 10.75 11L9.25 11A0.25 0.25 0 0 0 9 11.25L9 11.75A0.25 0.25 0 0 1 8.75 12L8.25 12A0.25 0.25 0 0 0 8 12.25L8 12.75A0.25 0.25 0 0 0 8.25 13L9.75 13A0.25 0.25 0 0 0 10 12.75L10 12.25A0.25 0.25 0 0 1 10.25 12L10.75 12A0.25 0.25 0 0 1 11 12.25L11 13.75A0.25 0.25 0 0 1 10.75 14L9.25 14A0.25 0.25 0 0 0 9 14.25L9 14.75A0.25 0.25 0 0 0 9.25 15L10.75 15A0.25 0.25 0 0 1 11 15.25L11 15.75A0.25 0.25 0 0 1 10.75 16L10.25 16A0.25 0.25 0 0 0 10 16.25L10 16.75A0.25 0.25 0 0 0 10.25 17L11.75 17A0.25 0.25 0 0 0 12 16.75L12 9.25A0.25 0.25 0 0 1 12.25 9L12.75 9A0.25 0.25 0 0 1 13 9.25L13 9.75A0.25 0.25 0 0 0 13.25 10L13.75 10A0.25 0.25 0 0 1 14 10.25L14 10.75A0.25 0.25 0 0 0 14.25 11L14.75 11A0.25 0.25 0 0 1 15 11.25L15 11.75A0.25 0.25 0 0 0 15.25 12L15.75 12A0.25 0.25 0 0 1 16 12.25L16 12.75A0.25 0.25 0 0 0 16.25 13L17.75 13A0.25 0.25 0 0 1 18 13.25L18 13.75A0.25 0.25 0 0 0 18.25 14L18.75 14A0.25 0.25 0 0 0 19 13.75L19 13.25A0.25 0.25 0 0 0 18.75 13L18.25 13A0.25 0.25 0 0 1 18 12.75L18 12.25A0.25 0.25 0 0 0 17.75 12L16.25 12A0.25 0.25 0 0 1 16 11.75L16 11.25A0.25 0.25 0 0 0 15.75 11L15.25 11A0.25 0.25 0 0 1 15 10.75L15 10.25A0.25 0.25 0 0 0 14.75 10L14.25 10A0.25 0.25 0 0 1 14 9.75L14 9.25A0.25 0.25 0 0 0 13.75 9L13.25 9A0.25 0.25 0 0 1 13 8.75L13 7.25A0.25 0.25 0 0 1 13.25 7L13.75 7A0.25 0.25 0 0 1 14 7.25L14 7.75A0.25 0.25 0 0 0 14.25 8L15.75 8A0.25 0.25 0 0 0 16 7.75L16 6.25A0.25 0.25 0 0 0 15.75 6L15.25 6A0.25 0.25 0 0 1 15 5.75L15 5.25A0.25 0.25 0 0 0 14.75 5L14.25 5A0.25 0.25 0 0 0 14 5.25ZM14 6.25L14 6.75A0.25 0.25 0 0 0 14.25 7L14.75 7A0.25 0.25 0 0 0 15 6.75L15 6.25A0.25 0.25 0 0 0 14.75 6L14.25 6A0.25 0.25 0 0 0 14 6.25ZM5 9.25L5 9.75A0.25 0.25 0 0 0 5.25 10L6.75 10A0.25 0.25 0 0 0 7 9.75L7 9.25A0.25 0.25 0 0 0 6.75 9L5.25 9A0.25 0.25 0 0 0 5 9.25ZM18 9.25L18 9.75A0.25 0.25 0 0 0 18.25 10L18.75 10A0.25 0.25 0 0 0 19 9.75L19 9.25A0.25 0.25 0 0 0 18.75 9L18.25 9A0.25 0.25 0 0 0 18 9.25ZM24 9.25L24 9.75A0.25 0.25 0 0 0 24.25 10L24.75 10A0.25 0.25 0 0 0 25 9.75L25 9.25A0.25 0.25 0 0 0 24.75 9L24.25 9A0.25 0.25 0 0 0 24 9.25ZM22 10.25L22 10.75A0.25 0.25 0 0 0 22.25 11L22.75 11A0.25 0.25 0 0 0 23 10.75L23 10.25A0.25 0.25 0 0 0 22.75 10L22.25 10A0.25 0.25 0 0 0 22 10.25ZM1 12.25L1 12.75A0.25 0.25 0 0 0 1.25 13L1.75 13A0.25 0.25 0 0 0 2 12.75L2 12.25A0.25 0.25 0 0 0 1.75 12L1.25 12A0.25 0.25 0 0 0 1 12.25ZM23 12.25L23 12.75A0.25 0.25 0 0 0 23.25 13L23.75 13A0.25 0.25 0 0 1 24 13.25L24 13.75A0.25 0.25 0 0 0 24.25 14L24.75 14A0.25 0.25 0 0 0 25 13.75L25 12.25A0.25 0.25 0 0 0 24.75 12L23.25 12A0.25 0.25 0 0 0 23 12.25ZM6 15.25L6 15.75A0.25 0.25 0 0 0 6.25 16L6.75 16A0.25 0.25 0 0 0 7 15.75L7 15.25A0.25 0.25 0 0 0 6.75 15L6.25 15A0.25 0.25 0 0 0 6 15.25ZM13 16.25L13 17.75A0.25 0.25 0 0 0 13.25 18L13.75 18A0.25 0.25 0 0 1 14 18.25L14 18.75A0.25 0.25 0 0 0 14.25 19L14.75 19A0.25 0.25 0 0 1 15 19.25L15 19.75A0.25 0.25 0 0 1 14.75 20L14.25 20A0.25 0.25 0 0 0 14 20.25L14 20.75A0.25 0.25 0 0 1 13.75 21L13.25 21A0.25 0.25 0 0 0 13 21.25L13 21.75A0.25 0.25 0 0 0 13.25 22L14.75 22A0.25 0.25 0 0 0 15 21.75L15 21.25A0.25 0.25 0 0 1 15.25 21L15.75 21A0.25 0.25 0 0 0 16 20.75L16 18.25A0.25 0.25 0 0 0 15.75 18L15.25 18A0.25 0.25 0 0 1 15 17.75L15 17.25A0.25 0.25 0 0 0 14.75 17L14.25 17A0.25 0.25 0 0 1 14 16.75L14 16.25A0.25 0.25 0 0 0 13.75 16L13.25 16A0.25 0.25 0 0 0 13 16.25ZM17 17.25L17 19.75A0.25 0.25 0 0 0 17.25 20L19.75 20A0.25 0.25 0 0 0 20 19.75L20 17.25A0.25 0.25 0 0 0 19.75 17L17.25 17A0.25 0.25 0 0 0 17 17.25ZM18 18.25L18 18.75A0.25 0.25 0 0 0 18.25 19L18.75 19A0.25 0.25 0 0 0 19 18.75L19 18.25A0.25 0.25 0 0 0 18.75 18L18.25 18A0.25 0.25 0 0 0 18 18.25ZM17 21.25L17 21.75A0.25 0.25 0 0 0 17.25 22L17.75 22A0.25 0.25 0 0 1 18 22.25L18 22.75A0.25 0.25 0 0 0 18.25 23L19.75 23A0.25 0.25 0 0 0 20 22.75L20 21.25A0.25 0.25 0 0 0 19.75 21L19.25 21A0.25 0.25 0 0 0 19 21.25L19 21.75A0.25 0.25 0 0 1 18.75 22L18.25 22A0.25 0.25 0 0 1 18 21.75L18 21.25A0.25 0.25 0 0 0 17.75 21L17.25 21A0.25 0.25 0 0 0 17 21.25ZM23 22.25L23 22.75A0.25 0.25 0 0 1 22.75 23L22.25 23A0.25 0.25 0 0 0 22 23.25L22 23.75A0.25 0.25 0 0 0 22.25 24L22.75 24A0.25 0.25 0 0 0 23 23.75L23 23.25A0.25 0.25 0 0 1 23.25 23L23.75 23A0.25 0.25 0 0 0 24 22.75L24 22.25A0.25 0.25 0 0 0 23.75 22L23.25 22A0.25 0.25 0 0 0 23 22.25Z" fill="#000000"/></g></g></svg>
